Coordinates
version=1
nRows=23
nColumns=38
inDegrees=no

Units are S.I. units (second, meters, Newtons, ...)
If the header above contains a line with 'inDegrees', this indicates whether rotational values are in degrees (yes) or radians (no).

endheader
time	pelvis_tilt	pelvis_list	pelvis_rotation	pelvis_tx	pelvis_ty	pelvis_tz	hip_flexion_r	hip_adduction_r	hip_rotation_r	knee_angle_r	ankle_angle_r	subtalar_angle_r	mtp_angle_r	hip_flexion_l	hip_adduction_l	hip_rotation_l	knee_angle_l	ankle_angle_l	subtalar_angle_l	mtp_angle_l	lumbar_extension	lumbar_bending	lumbar_rotation	arm_flex_r	arm_add_r	arm_rot_r	elbow_flex_r	pro_sup_r	wrist_flex_r	wrist_dev_r	arm_flex_l	arm_add_l	arm_rot_l	elbow_flex_l	pro_sup_l	wrist_flex_l	wrist_dev_l
0.52	-0.634354	1.42053	-0.949219	0.916225	0.566098	0.960426	-0.00121496	0.127194	-0.117092	0.254172	-0.00687977	0	0	0.316993	-0.174921	-0.03295	1.37264	-0.0740867	0	0	-0.197675	0.100308	-0.134502	-0.339376	-0.0687702	-0.567628	0.451198	1.07	0	0	-0.118924	-0.36781	0.497753	0.650308	0.595997	0	0
0.53	-0.587873	1.42136	-1.00475	0.915074	0.557718	0.961734	-0.0204546	0.121454	-0.107204	0.244613	-0.0030281	0	0	0.329616	-0.167797	-0.040316	1.35476	-0.0671947	0	0	-0.204604	0.0930162	-0.125398	-0.337879	-0.0684372	-0.57132	0.450214	1.06928	0	0	-0.118352	-0.367983	0.495067	0.651263	0.598834	0	0
0.54	-0.541856	1.42229	-1.05996	0.913973	0.549469	0.962906	-0.0389346	0.115334	-0.0971703	0.235082	0.000427028	0	0	0.340966	-0.160995	-0.0484654	1.33222	-0.0606493	0	0	-0.211093	0.0854818	-0.116471	-0.336406	-0.067841	-0.574231	0.450434	1.06981	0	0	-0.117646	-0.367943	0.492187	0.651401	0.601071	0	0
0.55	-0.50944	1.42222	-1.10159	0.914254	0.54138	0.963966	-0.0563967	0.109435	-0.0882874	0.226026	0.00435608	0	0	0.350188	-0.141716	-0.062339	1.30848	-0.0630924	0	0	-0.217593	0.0819795	-0.10752	-0.334073	-0.0691075	-0.575308	0.451551	1.07084	0	0	-0.116703	-0.366487	0.490434	0.652538	0.60359	0	0
0.56	-0.466356	1.42277	-1.1546	0.913159	0.533312	0.964869	-0.0734967	0.10285	-0.0786015	0.217275	0.00826622	0	0	0.358777	-0.136906	-0.0711095	1.27813	-0.056057	0	0	-0.223944	0.0744446	-0.099008	-0.330852	-0.0684807	-0.575363	0.453127	1.07216	0	0	-0.116127	-0.366579	0.488262	0.652358	0.605935	0	0
0.57	-0.427875	1.42348	-1.20275	0.912112	0.525303	0.965596	-0.0894889	0.0966033	-0.0689878	0.208705	0.0118678	0	0	0.366234	-0.13289	-0.079695	1.24423	-0.0481086	0	0	-0.229526	0.0673841	-0.0909563	-0.327167	-0.0678207	-0.574097	0.454817	1.07292	0	0	-0.115386	-0.366464	0.486137	0.651394	0.60716	0	0
0.58	-0.394124	1.42428	-1.24608	0.911071	0.517374	0.966164	-0.104467	0.0908673	-0.0585474	0.20033	0.0148635	0	0	0.372399	-0.129999	-0.0888847	1.20676	-0.0400831	0	0	-0.234539	0.0607394	-0.0831336	-0.322963	-0.0670918	-0.571959	0.456388	1.07254	0	0	-0.114538	-0.366757	0.485026	0.650809	0.608209	0	0
0.59	-0.364208	1.42513	-1.28493	0.910093	0.509503	0.966569	-0.118672	0.0856138	-0.0484831	0.192334	0.0178731	0	0	0.377117	-0.127708	-0.0985983	1.1656	-0.0324631	0	0	-0.239166	0.0546203	-0.0761227	-0.318153	-0.0661366	-0.570389	0.457816	1.07171	0	0	-0.11356	-0.367228	0.484531	0.649903	0.608937	0	0
0.6	-0.337587	1.42618	-1.31985	0.909187	0.501712	0.96681	-0.13191	0.0807318	-0.039496	0.184855	0.0212756	0	0	0.380327	-0.125975	-0.109039	1.12071	-0.0255359	0	0	-0.243418	0.0489163	-0.0697605	-0.312935	-0.0650472	-0.569052	0.459061	1.07096	0	0	-0.112226	-0.367867	0.484708	0.648907	0.610246	0	0
0.61	-0.309097	1.4268	-1.35745	0.908232	0.493891	0.967018	-0.145602	0.0753858	-0.0299032	0.177187	0.0246627	0	0	0.379977	-0.124952	-0.122709	1.07111	-0.0194326	0	0	-0.248004	0.0426748	-0.0627791	-0.307543	-0.0638581	-0.567634	0.460091	1.07009	0	0	-0.111005	-0.368897	0.48516	0.648066	0.611835	0	0
0.62	-0.28205	1.42764	-1.39367	0.907308	0.486046	0.967087	-0.158507	0.0699078	-0.0210974	0.170249	0.0284436	0	0	0.377581	-0.124622	-0.139127	1.01772	-0.0134334	0	0	-0.252061	0.0364668	-0.0557079	-0.302264	-0.0627602	-0.565607	0.46079	1.06835	0	0	-0.109642	-0.369909	0.485862	0.646675	0.613811	0	0
0.63	-0.256968	1.42869	-1.42773	0.906401	0.478135	0.966998	-0.170841	0.0644599	-0.0132869	0.163795	0.0326873	0	0	0.373288	-0.124913	-0.158321	0.960738	-0.00759164	0	0	-0.255375	0.0303988	-0.0488759	-0.297412	-0.0618191	-0.562809	0.46157	1.06745	0	0	-0.108305	-0.37115	0.487186	0.645412	0.614204	0	0
0.64	-0.234071	1.42964	-1.45931	0.905562	0.470128	0.966792	-0.183153	0.0589399	-0.0063574	0.157302	0.0376822	0	0	0.366607	-0.125304	-0.17984	0.900015	-0.00201459	0	0	-0.258332	0.024666	-0.0423628	-0.293074	-0.0610755	-0.559776	0.462577	1.06672	0	0	-0.107106	-0.372302	0.488499	0.643958	0.613735	0	0
0.65	-0.214093	1.4306	-1.48732	0.904854	0.462049	0.966469	-0.195301	0.0535629	0.000508619	0.150694	0.0428678	0	0	0.358123	-0.125471	-0.202703	0.836136	0.00317867	0	0	-0.260882	0.0194771	-0.0364533	-0.288825	-0.0605122	-0.557101	0.463032	1.06631	0	0	-0.106125	-0.373398	0.489677	0.642289	0.612491	0	0
0.66	-0.195775	1.43176	-1.51292	0.904296	0.45389	0.96603	-0.206918	0.0481808	0.00654958	0.144798	0.0484165	0	0	0.348373	-0.125043	-0.227373	0.769477	0.00730353	0	0	-0.262938	0.0147441	-0.0311924	-0.285146	-0.060015	-0.554806	0.463923	1.06562	0	0	-0.105194	-0.374602	0.491407	0.640765	0.609687	0	0
0.67	-0.18009	1.43313	-1.53515	0.903878	0.445613	0.965486	-0.217932	0.0429225	0.0110397	0.139781	0.0544307	0	0	0.337688	-0.124104	-0.253822	0.701028	0.0105834	0	0	-0.2644	0.0105848	-0.02672	-0.281706	-0.0594808	-0.553707	0.464772	1.06497	0	0	-0.104707	-0.375689	0.492704	0.639447	0.609756	0	0
0.68	-0.167469	1.435	-1.55295	0.903674	0.437158	0.964802	-0.228239	0.0379378	0.0139588	0.135219	0.0605553	0	0	0.327428	-0.122391	-0.282298	0.632818	0.0133973	0	0	-0.264835	0.00728358	-0.0238285	-0.278783	-0.0590827	-0.552794	0.465789	1.06457	0	0	-0.104736	-0.376117	0.492648	0.637319	0.610103	0	0
0.69	-0.155903	1.43773	-1.56795	0.903766	0.428599	0.963927	-0.237011	0.0331032	0.015169	0.131948	0.0671101	0	0	0.318669	-0.119252	-0.310653	0.565933	0.0155435	0	0	-0.264023	0.00467118	-0.0227626	-0.276492	-0.0588436	-0.551524	0.467493	1.06483	0	0	-0.105093	-0.376094	0.491762	0.634765	0.609912	0	0
0.7	-0.143051	1.44138	-1.58249	0.904179	0.419962	0.962858	-0.243972	0.0281552	0.014078	0.130373	0.0745832	0	0	0.310728	-0.113794	-0.336251	0.498591	0.0164488	0	0	-0.26207	0.00248626	-0.0234069	-0.274743	-0.0586914	-0.550012	0.469702	1.06505	0	0	-0.106106	-0.376052	0.489947	0.63325	0.608726	0	0
0.71	-0.135852	1.44733	-1.58925	0.904907	0.411259	0.961462	-0.247493	0.0244208	0.0107245	0.130842	0.0827647	0	0	0.307096	-0.107555	-0.356371	0.435673	0.0187487	0	0	-0.257266	0.00180522	-0.0260794	-0.273501	-0.0587235	-0.548473	0.471759	1.06547	0	0	-0.107668	-0.375918	0.488543	0.631445	0.6074	0	0
0.72	-0.114659	1.45297	-1.60915	0.905873	0.402444	0.960061	-0.250916	0.0188876	0.0061711	0.132523	0.091852	0	0	0.302407	-0.0973507	-0.372451	0.37263	0.0203104	0	0	-0.252536	-0.000458711	-0.0297428	-0.272437	-0.0585665	-0.546415	0.473602	1.06612	0	0	-0.109034	-0.375805	0.487167	0.628785	0.605553	0	0
0.73	-0.081906	1.4587	-1.63982	0.907026	0.39353	0.958581	-0.253119	0.0121562	0.00039134	0.136515	0.102046	0	0	0.297562	-0.0839892	-0.381587	0.310648	0.0215985	0	0	-0.247305	-0.00381585	-0.0341106	-0.271431	-0.0579685	-0.544912	0.475335	1.06679	0	0	-0.110219	-0.376025	0.48654	0.626268	0.60386	0	0
0.74	-0.0292695	1.46371	-1.68978	0.908369	0.38449	0.957116	-0.254547	0.00315677	-0.00782584	0.143291	0.113682	0	0	0.289667	-0.0658063	-0.377294	0.245308	0.0192352	0	0	-0.242239	-0.00910481	-0.0391636	-0.270716	-0.0569021	-0.543537	0.47763	1.06686	0	0	-0.110991	-0.376427	0.486788	0.622892	0.602281	0	0
